<?xml version="1.0" encoding="UTF-8" standalone="no"?>
<svg
   contentStyleType="text/css"
   data-diagram-type="ACTIVITY"
   height="666.78137"
   preserveAspectRatio="none"
   version="1.1"
   viewBox="0 0 1330.8375 666.78137"
   width="1330.8375"
   zoomAndPan="magnify"
   id="svg72"
   sodipodi:docname="flujo.svg"
   inkscape:version="1.4 (e7c3feb100, 2024-10-09)"
   inkscape:export-filename="flujo.png"
   inkscape:export-xdpi="96"
   inkscape:export-ydpi="96"
   xmlns:inkscape="http://www.inkscape.org/namespaces/inkscape"
   xmlns:sodipodi="http://sodipodi.sourceforge.net/DTD/sodipodi-0.dtd"
   xmlns="http://www.w3.org/2000/svg"
   xmlns:svg="http://www.w3.org/2000/svg"
   xmlns:rdf="http://www.w3.org/1999/02/22-rdf-syntax-ns#"
   xmlns:cc="http://creativecommons.org/ns#"
   xmlns:dc="http://purl.org/dc/elements/1.1/">
  <sodipodi:namedview
     id="namedview72"
     pagecolor="#ffffff"
     bordercolor="#000000"
     borderopacity="0.25"
     inkscape:showpageshadow="2"
     inkscape:pageopacity="0.0"
     inkscape:pagecheckerboard="0"
     inkscape:deskcolor="#d1d1d1"
     showguides="true"
     inkscape:zoom="1.2360638"
     inkscape:cx="666.22775"
     inkscape:cy="333.72064"
     inkscape:window-width="2560"
     inkscape:window-height="1356"
     inkscape:window-x="0"
     inkscape:window-y="28"
     inkscape:window-maximized="1"
     inkscape:current-layer="svg72">
    <sodipodi:guide
       position="51.297418,1247.9367"
       orientation="0,-1"
       id="guide72"
       inkscape:locked="false" />
    <sodipodi:guide
       position="777.45792,632.97428"
       orientation="0,-1"
       id="guide5"
       inkscape:locked="false" />
    <sodipodi:guide
       position="1066.7703,552.68327"
       orientation="1,0"
       id="guide6"
       inkscape:locked="false" />
    <sodipodi:guide
       position="391.69047,493.94475"
       orientation="1,0"
       id="guide1"
       inkscape:locked="false" />
    <sodipodi:guide
       position="851.61581,488.15802"
       orientation="1,0"
       id="guide2"
       inkscape:locked="false" />
  </sodipodi:namedview>
  <title
     id="title1">Flujo de Trabajo - Sistema tempoftp</title>
  <defs
     id="defs1" />
  <text
     fill="#000000"
     font-family="sans-serif"
     font-size="14px"
     font-weight="bold"
     lengthAdjust="spacing"
     textLength="248.5831"
     x="105.82"
     y="34.9659"
     id="text1"
     transform="translate(-90.566002,-24.2559)">Flujo de Trabajo - Sistema tempoftp</text>
  <circle
     cx="99.422493"
     cy="35.812"
     fill="#222222"
     style="stroke:#222222;stroke-width:1"
     id="ellipse1"
     r="10" />
  <rect
     fill="#ffffff"
     fill-opacity="0"
     height="207.6342"
     style="stroke:#000000;stroke-width:1.5"
     width="352.341"
     x="0.75"
     y="55.812"
     id="rect1" />
  <path
     d="m 49.557798,55.812 v 12.0679 l -10,10 H 0.74999811"
     fill="#ffffff"
     fill-opacity="0"
     style="stroke:#000000;stroke-width:1.5"
     id="path1" />
  <text
     fill="#000000"
     font-family="sans-serif"
     font-size="14px"
     lengthAdjust="spacing"
     textLength="38.8078"
     x="94.316002"
     y="96.033897"
     id="text2"
     transform="translate(-90.566002,-24.2559)">Inicial</text>
  <path
     d="m 167.5468,93.346 v 18.706 l -20,4 20,4 v 18.706 h 175.5441 v -35.412 l -10,-10 H 167.5468"
     fill="#fafafa"
     style="stroke:#181818;stroke-width:0.5"
     id="path2" />
  <path
     d="m 333.0909,93.346 v 10 h 10 l -10,-10"
     fill="#fafafa"
     style="stroke:#181818;stroke-width:0.5"
     id="path3" />
  <text
     fill="#000000"
     font-family="sans-serif"
     font-size="13px"
     lengthAdjust="spacing"
     textLength="96.642097"
     x="264.11279"
     y="136.4989"
     id="text3"
     transform="translate(-90.566002,-24.2559)">usuario, id, ruta</text>
  <text
     fill="#000000"
     font-family="sans-serif"
     font-size="13px"
     lengthAdjust="spacing"
     textLength="154.5441"
     x="264.11279"
     y="154.2049"
     id="text4"
     transform="translate(-90.566002,-24.2559)">vigencia (default: 10 días)</text>
  <rect
     fill="#f1f1f1"
     height="36.344101"
     rx="12.5"
     ry="12.5"
     style="stroke:#181818;stroke-width:0.5"
     width="96.248596"
     x="51.298302"
     y="97.879906"
     id="rect4" />
  <text
     fill="#000000"
     font-family="sans-serif"
     font-size="12px"
     lengthAdjust="spacing"
     textLength="76.248596"
     x="151.8643"
     y="144.9639"
     id="text5"
     transform="translate(-90.566002,-24.2559)">POST /tmpftp</text>
  <rect
     fill="#f1f1f1"
     height="36.344101"
     rx="12.5"
     ry="12.5"
     style="stroke:#181818;stroke-width:0.5"
     width="177.34509"
     x="10.75"
     y="158.758"
     id="rect5" />
  <text
     fill="#000000"
     font-family="sans-serif"
     font-size="12px"
     lengthAdjust="spacing"
     textLength="157.34509"
     x="111.316"
     y="205.842"
     id="text6"
     transform="translate(-90.566002,-24.2559)">Validar y registrar en SQLite</text>
  <rect
     fill="#f1f1f1"
     height="36.344101"
     rx="12.5"
     ry="12.5"
     style="stroke:#181818;stroke-width:0.5"
     width="113.1087"
     x="42.868202"
     y="215.1021"
     id="rect6" />
  <text
     fill="#000000"
     font-family="sans-serif"
     font-size="12px"
     lengthAdjust="spacing"
     textLength="41.340302"
     x="143.4342"
     y="262.1861"
     id="text7"
     transform="translate(-90.566002,-24.2559)">Estado:</text>
  <text
     fill="#000000"
     font-family="sans-serif"
     font-size="12px"
     font-weight="bold"
     lengthAdjust="spacing"
     textLength="48.6483"
     x="187.8945"
     y="262.1861"
     id="text8"
     transform="translate(-90.566002,-24.2559)">recibido</text>
  <rect
     fill="#ffffff"
     fill-opacity="0"
     height="561.62347"
     style="stroke:#000000;stroke-width:1.5"
     width="376.63461"
     x="432.46194"
     y="56.089855"
     id="rect8" />
  <path
     d="m 522.16365,56.089868 v 12.068 l -10,10.000002 h -79.7017"
     fill="#ffffff"
     fill-opacity="0"
     style="stroke:#000000;stroke-width:1.5"
     id="path8" />
  <text
     fill="#000000"
     font-family="sans-serif"
     font-size="14px"
     lengthAdjust="spacing"
     textLength="79.701698"
     x="14"
     y="313.66809"
     id="text9"
     transform="translate(421.46195,-241.61223)">Preparación</text>
  <rect
     fill="#f1f1f1"
     height="36.344101"
     rx="12.5"
     ry="12.5"
     style="stroke:#181818;stroke-width:0.5"
     width="135.0448"
     x="543.9281"
     y="95.157883"
     id="rect9" />
  <text
     fill="#000000"
     font-family="sans-serif"
     font-size="12px"
     lengthAdjust="spacing"
     textLength="41.340302"
     x="132.46609"
     y="359.59811"
     id="text10"
     transform="translate(421.46195,-241.61223)">Estado:</text>
  <text
     fill="#000000"
     font-family="sans-serif"
     font-size="12px"
     font-weight="bold"
     lengthAdjust="spacing"
     textLength="70.584503"
     x="176.92641"
     y="359.59811"
     id="text11"
     transform="translate(421.46195,-241.61223)">preparando</text>
  <rect
     fill="#f1f1f1"
     height="36.344101"
     rx="12.5"
     ry="12.5"
     style="stroke:#181818;stroke-width:0.5"
     width="192.26131"
     x="515.31989"
     y="151.50195"
     id="rect11" />
  <text
     fill="#000000"
     font-family="sans-serif"
     font-size="12px"
     lengthAdjust="spacing"
     textLength="172.26131"
     x="103.8579"
     y="415.94229"
     id="text12"
     transform="translate(421.46195,-241.61223)">Preparar directorio y permisos</text>
  <polygon
     fill="#f1f1f1"
     points="231.9743,461.4583 219.9743,473.4583 160.0027,473.4583 148.0027,461.4583 160.0027,449.4583 219.9743,449.4583 "
     style="stroke:#181818;stroke-width:0.5"
     id="polygon12"
     transform="translate(421.46195,-241.61223)" />
  <text
     fill="#000000"
     font-family="sans-serif"
     font-size="11px"
     lengthAdjust="spacing"
     textLength="59.9716"
     x="160.0027"
     y="465.7262"
     id="text13"
     transform="translate(421.46195,-241.61223)">¿Ruta local?</text>
  <text
     fill="#000000"
     font-family="sans-serif"
     font-size="11px"
     lengthAdjust="spacing"
     textLength="8.1069002"
     x="139.8958"
     y="458.23529"
     id="text14"
     transform="translate(421.46195,-241.61223)">sí</text>
  <text
     fill="#000000"
     font-family="sans-serif"
     font-size="11px"
     lengthAdjust="spacing"
     textLength="13.4529"
     x="231.9743"
     y="458.23529"
     id="text15"
     transform="translate(421.46195,-241.61223)">no</text>
  <rect
     fill="#f1f1f1"
     height="36.344101"
     rx="12.5"
     ry="12.5"
     style="stroke:#181818;stroke-width:0.5"
     width="147.6929"
     x="447.10648"
     y="241.84608"
     id="rect15" />
  <text
     fill="#000000"
     font-family="sans-serif"
     font-size="12px"
     lengthAdjust="spacing"
     textLength="127.6929"
     x="35.644501"
     y="506.28641"
     id="text16"
     transform="translate(421.46195,-241.61223)">Crear enlace simbólico</text>
  <rect
     fill="#f1f1f1"
     height="36.344101"
     rx="12.5"
     ry="12.5"
     style="stroke:#181818;stroke-width:0.5"
     width="174.2971"
     x="614.7995"
     y="241.84608"
     id="rect16" />
  <text
     fill="#000000"
     font-family="sans-serif"
     font-size="12px"
     lengthAdjust="spacing"
     textLength="154.2971"
     x="203.33749"
     y="506.28641"
     id="text17"
     transform="translate(421.46195,-241.61223)">Verificar espacio disponible</text>
  <rect
     fill="#f1f1f1"
     height="36.344101"
     rx="12.5"
     ry="12.5"
     style="stroke:#181818;stroke-width:0.5"
     width="114.2607"
     x="644.81769"
     y="298.19019"
     id="rect17" />
  <text
     fill="#000000"
     font-family="sans-serif"
     font-size="12px"
     lengthAdjust="spacing"
     textLength="41.340302"
     x="233.3557"
     y="562.63049"
     id="text18"
     transform="translate(421.46195,-241.61223)">Estado:</text>
  <text
     fill="#000000"
     font-family="sans-serif"
     font-size="12px"
     font-weight="bold"
     lengthAdjust="spacing"
     textLength="49.800301"
     x="277.81601"
     y="562.63049"
     id="text19"
     transform="translate(421.46195,-241.61223)">traslado</text>
  <rect
     fill="#f1f1f1"
     height="36.344101"
     rx="12.5"
     ry="12.5"
     style="stroke:#181818;stroke-width:0.5"
     width="98.8526"
     x="652.52179"
     y="354.53424"
     id="rect19" />
  <text
     fill="#000000"
     font-family="sans-serif"
     font-size="12px"
     lengthAdjust="spacing"
     textLength="78.8526"
     x="241.0598"
     y="618.97461"
     id="text20"
     transform="translate(421.46195,-241.61223)">Ejecutar rsync</text>
  <rect
     fill="#f1f1f1"
     height="36.344101"
     rx="12.5"
     ry="12.5"
     style="stroke:#181818;stroke-width:0.5"
     width="95.3246"
     x="654.28577"
     y="460.36938"
     id="rect20" />
  <text
     fill="#000000"
     font-family="sans-serif"
     font-size="12px"
     lengthAdjust="spacing"
     textLength="41.340302"
     x="242.82381"
     y="724.80969"
     id="text21"
     transform="translate(421.46195,-241.61223)">Estado:</text>
  <text
     fill="#000000"
     font-family="sans-serif"
     font-size="12px"
     font-weight="bold"
     lengthAdjust="spacing"
     textLength="30.864201"
     x="287.28409"
     y="724.80969"
     id="text22"
     transform="translate(421.46195,-241.61223)">error</text>
  <circle
     cx="701.948"
     cy="542.71344"
     fill="#ffffff"
     fill-opacity="0"
     style="stroke:#222222;stroke-width:1"
     id="ellipse22"
     r="11" />
  <circle
     cx="701.948"
     cy="542.71344"
     fill="#222222"
     style="stroke:#222222;stroke-width:1"
     id="ellipse23"
     r="6" />
  <polygon
     fill="#f1f1f1"
     points="332.2948,664.4906 320.2948,676.4906 240.6773,676.4906 228.6773,664.4906 240.6773,652.4906 320.2948,652.4906 "
     style="stroke:#181818;stroke-width:0.5"
     id="polygon23"
     transform="translate(421.46195,-241.61223)" />
  <text
     fill="#000000"
     font-family="sans-serif"
     font-size="11px"
     lengthAdjust="spacing"
     textLength="26.487801"
     x="284.48599"
     y="688.24951"
     id="text23"
     transform="translate(421.46195,-241.61223)">error</text>
  <text
     fill="#000000"
     font-family="sans-serif"
     font-size="11px"
     lengthAdjust="spacing"
     textLength="79.617401"
     x="240.67731"
     y="668.75861"
     id="text24"
     transform="translate(421.46195,-241.61223)">¿Rsync exitoso?</text>
  <text
     fill="#000000"
     font-family="sans-serif"
     font-size="11px"
     lengthAdjust="spacing"
     textLength="8.1069002"
     x="332.2948"
     y="661.26758"
     id="text25"
     transform="translate(421.46195,-241.61223)">sí</text>
  <polygon
     fill="#f1f1f1"
     points="189.9885,847.3257 177.9885,835.3257 189.9885,823.3257 201.9885,835.3257 "
     style="stroke:#181818;stroke-width:0.5"
     id="polygon25"
     transform="translate(421.46195,-241.61223)" />
  <rect
     fill="#ffffff"
     fill-opacity="0"
     height="381.32239"
     style="stroke:#000000;stroke-width:1.5"
     width="438.5784"
     x="891.50909"
     y="53.027851"
     id="rect25" />
  <path
     d="m 995.4207,53.02788 v 12.0679 l -10,10 h -93.91163"
     fill="#ffffff"
     fill-opacity="0"
     style="stroke:#000000;stroke-width:1.5"
     id="path25" />
  <text
     fill="#000000"
     font-family="sans-serif"
     font-size="14px"
     lengthAdjust="spacing"
     textLength="93.911598"
     x="16.644501"
     y="885.29163"
     id="text26"
     transform="translate(877.86457,-816.29782)">Activación FTP</text>
  <polygon
     fill="#f1f1f1"
     points="258.8535,908.3936 270.8535,920.3936 258.8535,932.3936 121.1235,932.3936 109.1235,920.3936 121.1235,908.3936 "
     style="stroke:#181818;stroke-width:0.5"
     id="polygon26"
     transform="translate(877.86457,-816.29782)" />
  <text
     fill="#000000"
     font-family="sans-serif"
     font-size="11px"
     lengthAdjust="spacing"
     textLength="137.73"
     x="121.1235"
     y="924.66162"
     id="text27"
     transform="translate(877.86457,-816.29782)">¿Usuario existe en MySQL?</text>
  <text
     fill="#000000"
     font-family="sans-serif"
     font-size="11px"
     lengthAdjust="spacing"
     textLength="8.1069002"
     x="101.0166"
     y="917.17059"
     id="text28"
     transform="translate(877.86457,-816.29782)">sí</text>
  <text
     fill="#000000"
     font-family="sans-serif"
     font-size="11px"
     lengthAdjust="spacing"
     textLength="13.4529"
     x="270.85349"
     y="917.17059"
     id="text29"
     transform="translate(877.86457,-816.29782)">no</text>
  <rect
     fill="#f1f1f1"
     height="36.344101"
     rx="12.5"
     ry="12.5"
     style="stroke:#181818;stroke-width:0.5"
     width="141.6689"
     x="906.15369"
     y="126.09579"
     id="rect29" />
  <text
     fill="#000000"
     font-family="sans-serif"
     font-size="12px"
     lengthAdjust="spacing"
     textLength="121.6689"
     x="38.289101"
     y="965.22168"
     id="text30"
     transform="translate(877.86457,-816.29782)">Actualizar contraseña</text>
  <rect
     fill="#f1f1f1"
     height="36.344101"
     rx="12.5"
     ry="12.5"
     style="stroke:#181818;stroke-width:0.5"
     width="156.41701"
     x="1080.5096"
     y="126.09579"
     id="rect30" />
  <text
     fill="#000000"
     font-family="sans-serif"
     font-size="12px"
     lengthAdjust="spacing"
     textLength="136.41701"
     x="212.6451"
     y="965.22168"
     id="text31"
     transform="translate(877.86457,-816.29782)">Crear usuario en MySQL</text>
  <polygon
     fill="#f1f1f1"
     points="177.9885,996.7377 189.9885,984.7377 201.9885,996.7377 189.9885,1008.7377 "
     style="stroke:#181818;stroke-width:0.5"
     id="polygon31"
     transform="translate(877.86457,-816.29782)" />
  <rect
     fill="#f1f1f1"
     height="36.344101"
     rx="12.5"
     ry="12.5"
     style="stroke:#181818;stroke-width:0.5"
     width="210.5854"
     x="962.56036"
     y="212.43983"
     id="rect31" />
  <text
     fill="#000000"
     font-family="sans-serif"
     font-size="12px"
     lengthAdjust="spacing"
     textLength="190.5854"
     x="94.695801"
     y="1051.5658"
     id="text32"
     transform="translate(877.86457,-816.29782)">Almacenar credenciales en SQLite</text>
  <rect
     fill="#f1f1f1"
     height="36.344101"
     rx="12.5"
     ry="12.5"
     style="stroke:#181818;stroke-width:0.5"
     width="90.380501"
     x="1022.6629"
     y="268.78397"
     id="rect32" />
  <text
     fill="#000000"
     font-family="sans-serif"
     font-size="12px"
     lengthAdjust="spacing"
     textLength="41.340302"
     x="154.79829"
     y="1107.9099"
     id="text33"
     transform="translate(877.86457,-816.29782)">Estado:</text>
  <text
     fill="#000000"
     font-family="sans-serif"
     font-size="12px"
     font-weight="bold"
     lengthAdjust="spacing"
     textLength="25.9202"
     x="199.25861"
     y="1107.9099"
     id="text34"
     transform="translate(877.86457,-816.29782)">listo</text>
  <path
     d="m 1144.1014,320.59418 v 18.706 l -20,4 20,4 v 18.706 h 175.9861 v -35.412 l -10,-10 h -165.9861"
     fill="#fafafa"
     style="stroke:#181818;stroke-width:0.5"
     id="path34" />
  <path
     d="m 1310.0875,320.59418 v 10 h 10 l -10,-10"
     fill="#fafafa"
     style="stroke:#181818;stroke-width:0.5"
     id="path35" />
  <text
     fill="#000000"
     font-family="sans-serif"
     font-size="13px"
     lengthAdjust="spacing"
     textLength="114.1141"
     x="272.23691"
     y="1155.7889"
     id="text35"
     transform="translate(877.86457,-816.29782)">Credenciales FTP +</text>
  <text
     fill="#000000"
     font-family="sans-serif"
     font-size="13px"
     lengthAdjust="spacing"
     textLength="154.9861"
     x="272.23691"
     y="1173.495"
     id="text36"
     transform="translate(877.86457,-816.29782)">estadísticas de descargas</text>
  <rect
     fill="#f1f1f1"
     height="36.344101"
     rx="12.5"
     ry="12.5"
     style="stroke:#181818;stroke-width:0.5"
     width="112.4967"
     x="1011.6048"
     y="325.12808"
     id="rect36" />
  <text
     fill="#000000"
     font-family="sans-serif"
     font-size="12px"
     lengthAdjust="spacing"
     textLength="92.496696"
     x="143.7402"
     y="1164.254"
     id="text37"
     transform="translate(877.86457,-816.29782)">GET /tmpftp/{id}</text>
  <rect
     fill="#f1f1f1"
     height="36.344101"
     rx="12.5"
     ry="12.5"
     style="stroke:#181818;stroke-width:0.5"
     width="262.2337"
     x="936.73627"
     y="386.00613"
     id="rect37" />
  <text
     fill="#000000"
     font-family="sans-serif"
     font-size="12px"
     lengthAdjust="spacing"
     textLength="242.2337"
     x="68.871696"
     y="1225.1321"
     id="text38"
     transform="translate(877.86457,-816.29782)">Vigencia expirada: eliminar usuario y datos</text>
  <circle
     cx="1067.853"
     cy="465.35025"
     fill="#ffffff"
     fill-opacity="0"
     style="stroke:#222222;stroke-width:1"
     id="ellipse38"
     r="11" />
  <circle
     cx="1067.853"
     cy="465.35025"
     fill="#222222"
     style="stroke:#222222;stroke-width:1"
     id="ellipse39"
     r="6" />
  <line
     style="stroke:#181818;stroke-width:1"
     x1="99.422493"
     x2="99.422493"
     y1="134.224"
     y2="158.758"
     id="line39" />
  <polygon
     fill="#181818"
     points="185.9885,173.0139 189.9885,183.0139 193.9885,173.0139 189.9885,177.0139 "
     style="stroke:#181818;stroke-width:1"
     id="polygon39"
     transform="translate(-90.566002,-24.2559)" />
  <line
     style="stroke:#181818;stroke-width:1"
     x1="99.422493"
     x2="99.422493"
     y1="195.1021"
     y2="215.1021"
     id="line40" />
  <polygon
     fill="#181818"
     points="185.9885,229.358 189.9885,239.358 193.9885,229.358 189.9885,233.358 "
     style="stroke:#181818;stroke-width:1"
     id="polygon40"
     transform="translate(-90.566002,-24.2559)" />
  <line
     style="stroke:#181818;stroke-width:1"
     x1="99.422493"
     x2="99.422493"
     y1="45.812"
     y2="97.879906"
     id="line41" />
  <polygon
     fill="#181818"
     points="185.9885,112.1358 189.9885,122.1358 193.9885,112.1358 189.9885,116.1358 "
     style="stroke:#181818;stroke-width:1"
     id="polygon41"
     transform="translate(-90.566002,-24.2559)" />
  <line
     style="stroke:#181818;stroke-width:1"
     x1="611.4505"
     x2="611.4505"
     y1="131.50195"
     y2="151.50195"
     id="line42" />
  <polygon
     fill="#181818"
     points="193.9885,383.1142 189.9885,387.1142 185.9885,383.1142 189.9885,393.1142 "
     style="stroke:#181818;stroke-width:1"
     id="polygon42"
     transform="translate(421.46195,-241.61223)" />
  <line
     style="stroke:#181818;stroke-width:1"
     x1="701.948"
     x2="701.948"
     y1="278.19022"
     y2="298.19019"
     id="line43" />
  <polygon
     fill="#181818"
     points="284.486,529.8024 280.486,533.8024 276.486,529.8024 280.486,539.8024 "
     style="stroke:#181818;stroke-width:1"
     id="polygon43"
     transform="translate(421.46195,-241.61223)" />
  <line
     style="stroke:#181818;stroke-width:1"
     x1="701.948"
     x2="701.948"
     y1="334.53424"
     y2="354.53424"
     id="line44" />
  <polygon
     fill="#181818"
     points="284.486,586.1465 280.486,590.1465 276.486,586.1465 280.486,596.1465 "
     style="stroke:#181818;stroke-width:1"
     id="polygon44"
     transform="translate(421.46195,-241.61223)" />
  <line
     style="stroke:#181818;stroke-width:1"
     x1="701.948"
     x2="701.948"
     y1="496.71347"
     y2="531.71344"
     id="line45" />
  <polygon
     fill="#181818"
     points="284.486,763.3257 280.486,767.3257 276.486,763.3257 280.486,773.3257 "
     style="stroke:#181818;stroke-width:1"
     id="polygon45"
     transform="translate(421.46195,-241.61223)" />
  <line
     style="stroke:#181818;stroke-width:1"
     x1="701.948"
     x2="701.948"
     y1="434.87836"
     y2="460.36938"
     id="line46" />
  <polygon
     fill="#181818"
     points="284.486,691.9816 280.486,695.9816 276.486,691.9816 280.486,701.9816 "
     style="stroke:#181818;stroke-width:1"
     id="polygon46"
     transform="translate(421.46195,-241.61223)" />
  <line
     style="stroke:#181818;stroke-width:1"
     x1="753.75677"
     x2="765.75677"
     y1="422.87836"
     y2="422.87836"
     id="line47" />
  <polygon
     fill="#181818"
     points="348.2948,744.6536 344.2948,748.6536 340.2948,744.6536 344.2948,754.6536 "
     style="stroke:#181818;stroke-width:1"
     id="polygon47"
     transform="translate(421.46195,-241.61223)" />
  <line
     style="stroke:#181818;stroke-width:1"
     x1="765.75677"
     x2="765.75677"
     y1="422.87836"
     y2="593.71344"
     id="line48" />
  <line
     style="stroke:#181818;stroke-width:1"
     x1="765.75677"
     x2="623.4505"
     y1="593.71344"
     y2="593.71344"
     id="line49" />
  <polygon
     fill="#181818"
     points="211.9885,839.3257 207.9885,835.3257 211.9885,831.3257 201.9885,835.3257 "
     style="stroke:#181818;stroke-width:1"
     id="polygon49"
     transform="translate(421.46195,-241.61223)" />
  <line
     style="stroke:#181818;stroke-width:1"
     x1="701.948"
     x2="701.948"
     y1="390.87836"
     y2="410.87836"
     id="line50" />
  <polygon
     fill="#181818"
     points="284.486,642.4906 280.486,646.4906 276.486,642.4906 280.486,652.4906 "
     style="stroke:#181818;stroke-width:1"
     id="polygon50"
     transform="translate(421.46195,-241.61223)" />
  <line
     style="stroke:#181818;stroke-width:1"
     x1="569.46466"
     x2="520.953"
     y1="219.84608"
     y2="219.84608"
     id="line51" />
  <line
     style="stroke:#181818;stroke-width:1"
     x1="520.953"
     x2="520.953"
     y1="219.84608"
     y2="241.84608"
     id="line52" />
  <polygon
     fill="#181818"
     points="103.491,473.4583 99.491,477.4583 95.491,473.4583 99.491,483.4583 "
     style="stroke:#181818;stroke-width:1"
     id="polygon52"
     transform="translate(421.46195,-241.61223)" />
  <line
     style="stroke:#181818;stroke-width:1"
     x1="653.43628"
     x2="701.948"
     y1="219.84608"
     y2="219.84608"
     id="line53" />
  <line
     style="stroke:#181818;stroke-width:1"
     x1="701.948"
     x2="701.948"
     y1="219.84608"
     y2="241.84608"
     id="line54" />
  <polygon
     fill="#181818"
     points="284.486,473.4583 280.486,477.4583 276.486,473.4583 280.486,483.4583 "
     style="stroke:#181818;stroke-width:1"
     id="polygon54"
     transform="translate(421.46195,-241.61223)" />
  <line
     style="stroke:#181818;stroke-width:1"
     x1="520.953"
     x2="520.953"
     y1="278.19022"
     y2="593.71344"
     id="line55" />
  <line
     style="stroke:#181818;stroke-width:1"
     x1="520.953"
     x2="599.4505"
     y1="593.71344"
     y2="593.71344"
     id="line56" />
  <polygon
     fill="#181818"
     points="167.9885,839.3257 171.9885,835.3257 167.9885,831.3257 177.9885,835.3257 "
     style="stroke:#181818;stroke-width:1"
     id="polygon56"
     transform="translate(421.46195,-241.61223)" />
  <line
     style="stroke:#181818;stroke-width:1"
     x1="611.4505"
     x2="611.4505"
     y1="187.84608"
     y2="207.84608"
     id="line57" />
  <polygon
     fill="#181818"
     points="193.9885,439.4583 189.9885,443.4583 185.9885,439.4583 189.9885,449.4583 "
     style="stroke:#181818;stroke-width:1"
     id="polygon57"
     transform="translate(421.46195,-241.61223)" />
  <line
     style="stroke:#181818;stroke-width:1"
     x1="99.422493"
     x2="99.422493"
     y1="251.44618"
     y2="312.51422"
     id="line58" />
  <polygon
     fill="#181818"
     points="193.9885,326.7701 189.9885,330.7701 185.9885,326.7701 189.9885,336.7701 "
     style="stroke:#181818;stroke-width:1"
     id="polygon58"
     transform="translate(421.46195,-241.61223)" />
  <line
     style="stroke:#181818;stroke-width:1"
     x1="986.9881"
     x2="976.9881"
     y1="104.09579"
     y2="104.09579"
     id="line59" />
  <line
     style="stroke:#181818;stroke-width:1"
     x1="976.9881"
     x2="976.9881"
     y1="104.09579"
     y2="126.09579"
     id="line60" />
  <polygon
     fill="#181818"
     points="99.1235,936.3936 95.1235,932.3936 99.1235,942.3936 103.1235,932.3936 "
     style="stroke:#181818;stroke-width:1"
     id="polygon60"
     transform="translate(877.86457,-816.29782)" />
  <line
     style="stroke:#181818;stroke-width:1"
     x1="1148.718"
     x2="1158.718"
     y1="104.09579"
     y2="104.09579"
     id="line61" />
  <line
     style="stroke:#181818;stroke-width:1"
     x1="1158.718"
     x2="1158.718"
     y1="104.09579"
     y2="126.09579"
     id="line62" />
  <polygon
     fill="#181818"
     points="280.8535,936.3936 276.8535,932.3936 280.8535,942.3936 284.8535,932.3936 "
     style="stroke:#181818;stroke-width:1"
     id="polygon62"
     transform="translate(877.86457,-816.29782)" />
  <line
     style="stroke:#181818;stroke-width:1"
     x1="976.9881"
     x2="976.9881"
     y1="162.43985"
     y2="180.43983"
     id="line63" />
  <line
     style="stroke:#181818;stroke-width:1"
     x1="976.9881"
     x2="1055.853"
     y1="180.43983"
     y2="180.43983"
     id="line64" />
  <polygon
     fill="#181818"
     points="171.9885,996.7377 167.9885,992.7377 177.9885,996.7377 167.9885,1000.7377 "
     style="stroke:#181818;stroke-width:1"
     id="polygon64"
     transform="translate(877.86457,-816.29782)" />
  <line
     style="stroke:#181818;stroke-width:1"
     x1="1158.718"
     x2="1158.718"
     y1="162.43985"
     y2="180.43983"
     id="line65" />
  <line
     style="stroke:#181818;stroke-width:1"
     x1="1158.718"
     x2="1079.853"
     y1="180.43983"
     y2="180.43983"
     id="line66" />
  <polygon
     fill="#181818"
     points="207.9885,996.7377 211.9885,992.7377 201.9885,996.7377 211.9885,1000.7377 "
     style="stroke:#181818;stroke-width:1"
     id="polygon66"
     transform="translate(877.86457,-816.29782)" />
  <line
     style="stroke:#181818;stroke-width:1"
     x1="1067.853"
     x2="1067.853"
     y1="192.43983"
     y2="212.43983"
     id="line67" />
  <polygon
     fill="#181818"
     points="189.9885,1022.7377 185.9885,1018.7377 189.9885,1028.7377 193.9885,1018.7377 "
     style="stroke:#181818;stroke-width:1"
     id="polygon67"
     transform="translate(877.86457,-816.29782)" />
  <line
     style="stroke:#181818;stroke-width:1"
     x1="1067.853"
     x2="1067.853"
     y1="248.78395"
     y2="268.78397"
     id="line68" />
  <polygon
     fill="#181818"
     points="189.9885,1079.0818 185.9885,1075.0818 189.9885,1085.0818 193.9885,1075.0818 "
     style="stroke:#181818;stroke-width:1"
     id="polygon68"
     transform="translate(877.86457,-816.29782)" />
  <line
     style="stroke:#181818;stroke-width:1"
     x1="1067.853"
     x2="1067.853"
     y1="305.12808"
     y2="325.12808"
     id="line69" />
  <polygon
     fill="#181818"
     points="189.9885,1135.4259 185.9885,1131.4259 189.9885,1141.4259 193.9885,1131.4259 "
     style="stroke:#181818;stroke-width:1"
     id="polygon69"
     transform="translate(877.86457,-816.29782)" />
  <line
     style="stroke:#181818;stroke-width:1.5;stroke-dasharray:1, 3"
     x1="1067.853"
     x2="1067.853"
     y1="361.47232"
     y2="386.00613"
     id="line70" />
  <polygon
     fill="#181818"
     points="189.9885,1196.304 185.9885,1192.304 189.9885,1202.304 193.9885,1192.304 "
     style="stroke:#181818;stroke-width:1"
     id="polygon70"
     transform="translate(877.86457,-816.29782)" />
  <line
     style="stroke:#181818;stroke-width:1"
     x1="611.4505"
     x2="611.4505"
     y1="605.71344"
     y2="666.78137"
     id="line71" />
  <polygon
     fill="#181818"
     points="189.9885,902.3936 185.9885,898.3936 189.9885,908.3936 193.9885,898.3936 "
     style="stroke:#181818;stroke-width:1"
     id="polygon71"
     transform="translate(877.86457,-816.29782)" />
  <line
     style="stroke:#181818;stroke-width:1"
     x1="1067.853"
     x2="1067.853"
     y1="422.35025"
     y2="454.35025"
     id="line72" />
  <polygon
     fill="#181818"
     points="189.9885,1264.6481 185.9885,1260.6481 189.9885,1270.6481 193.9885,1260.6481 "
     style="stroke:#181818;stroke-width:1"
     id="polygon72"
     transform="translate(877.86457,-816.29782)" />
  <metadata
     id="metadata72">
    <rdf:RDF>
      <cc:Work
         rdf:about="">
        <dc:title>Flujo de Trabajo - Sistema tempoftp</dc:title>
      </cc:Work>
    </rdf:RDF>
  </metadata>
  <path
     style="fill:none;fill-rule:evenodd;stroke:#000000;stroke-width:1px;stroke-linecap:butt;stroke-linejoin:miter;stroke-opacity:1"
     d="M 609.91353,91.31558 100.14323,310.67161"
     id="path4"
     inkscape:connector-type="polyline"
     inkscape:connector-curvature="0"
     inkscape:connection-start="#polygon58"
     sodipodi:nodetypes="ccccc" />
  <path
     style="fill:none;fill-rule:evenodd;stroke:#000000;stroke-width:1px;stroke-linecap:butt;stroke-linejoin:miter;stroke-opacity:1"
     d="M 1066.6579,89.107892 611.10131,666.86288"
     id="path5"
     inkscape:connector-type="polyline"
     inkscape:connector-curvature="0"
     inkscape:connection-start="#polygon71"
     sodipodi:nodetypes="ccccc" />
</svg>
